<mxfile host="app.diagrams.net" agent="Mozilla/5.0 (Windows NT 10.0; Win64; x64) AppleWebKit/537.36 (KHTML, like Gecko) Chrome/142.0.0.0 Safari/537.36" version="28.2.7">
  <diagram name="第 1 页" id="nhP1Kp4l2xEgsS98u0TF">
    <mxGraphModel dx="2381" dy="822" grid="1" gridSize="10" guides="1" tooltips="1" connect="1" arrows="1" fold="1" page="1" pageScale="1" pageWidth="827" pageHeight="1169" math="0" shadow="0">
      <root>
        <mxCell id="0" />
        <mxCell id="1" parent="0" />
        <mxCell id="ZQnh7hxJV5lGrwh2JK_R-76" style="edgeStyle=orthogonalEdgeStyle;rounded=0;orthogonalLoop=1;jettySize=auto;html=1;exitX=0.5;exitY=1;exitDx=0;exitDy=0;" edge="1" parent="1" source="ZQnh7hxJV5lGrwh2JK_R-39" target="ZQnh7hxJV5lGrwh2JK_R-2">
          <mxGeometry relative="1" as="geometry" />
        </mxCell>
        <mxCell id="ZQnh7hxJV5lGrwh2JK_R-77" style="edgeStyle=orthogonalEdgeStyle;rounded=0;orthogonalLoop=1;jettySize=auto;html=1;exitX=0.5;exitY=1;exitDx=0;exitDy=0;" edge="1" parent="1" source="ZQnh7hxJV5lGrwh2JK_R-39" target="ZQnh7hxJV5lGrwh2JK_R-1">
          <mxGeometry relative="1" as="geometry" />
        </mxCell>
        <mxCell id="ZQnh7hxJV5lGrwh2JK_R-78" style="edgeStyle=orthogonalEdgeStyle;rounded=0;orthogonalLoop=1;jettySize=auto;html=1;entryX=0.5;entryY=0;entryDx=0;entryDy=0;exitX=0.5;exitY=1;exitDx=0;exitDy=0;" edge="1" parent="1" source="ZQnh7hxJV5lGrwh2JK_R-39" target="ZQnh7hxJV5lGrwh2JK_R-4">
          <mxGeometry relative="1" as="geometry" />
        </mxCell>
        <mxCell id="ZQnh7hxJV5lGrwh2JK_R-79" style="edgeStyle=orthogonalEdgeStyle;rounded=0;orthogonalLoop=1;jettySize=auto;html=1;exitX=0.5;exitY=1;exitDx=0;exitDy=0;" edge="1" parent="1" source="ZQnh7hxJV5lGrwh2JK_R-39" target="ZQnh7hxJV5lGrwh2JK_R-57">
          <mxGeometry relative="1" as="geometry" />
        </mxCell>
        <mxCell id="ZQnh7hxJV5lGrwh2JK_R-39" value="&lt;font style=&quot;font-size: 16px;&quot;&gt;社群功能&lt;/font&gt;" style="rounded=1;whiteSpace=wrap;html=1;" vertex="1" parent="1">
          <mxGeometry x="400" y="180" width="120" height="60" as="geometry" />
        </mxCell>
        <mxCell id="ZQnh7hxJV5lGrwh2JK_R-52" value="" style="swimlane;startSize=0;" vertex="1" parent="1">
          <mxGeometry x="90" y="360" width="400" height="400" as="geometry">
            <mxRectangle x="90" y="360" width="50" height="40" as="alternateBounds" />
          </mxGeometry>
        </mxCell>
        <mxCell id="ZQnh7hxJV5lGrwh2JK_R-69" style="edgeStyle=orthogonalEdgeStyle;rounded=0;orthogonalLoop=1;jettySize=auto;html=1;entryX=0.5;entryY=0;entryDx=0;entryDy=0;" edge="1" parent="ZQnh7hxJV5lGrwh2JK_R-52" source="ZQnh7hxJV5lGrwh2JK_R-1" target="ZQnh7hxJV5lGrwh2JK_R-44">
          <mxGeometry relative="1" as="geometry" />
        </mxCell>
        <mxCell id="ZQnh7hxJV5lGrwh2JK_R-70" style="edgeStyle=orthogonalEdgeStyle;rounded=0;orthogonalLoop=1;jettySize=auto;html=1;exitX=0.5;exitY=1;exitDx=0;exitDy=0;" edge="1" parent="ZQnh7hxJV5lGrwh2JK_R-52" source="ZQnh7hxJV5lGrwh2JK_R-1" target="ZQnh7hxJV5lGrwh2JK_R-54">
          <mxGeometry relative="1" as="geometry" />
        </mxCell>
        <mxCell id="ZQnh7hxJV5lGrwh2JK_R-1" value="&lt;font style=&quot;font-size: 16px;&quot;&gt;社群首頁&lt;/font&gt;" style="rounded=1;whiteSpace=wrap;html=1;" vertex="1" parent="ZQnh7hxJV5lGrwh2JK_R-52">
          <mxGeometry x="40" y="-20" width="120" height="60" as="geometry" />
        </mxCell>
        <mxCell id="ZQnh7hxJV5lGrwh2JK_R-40" value="貼文" style="swimlane;fontStyle=0;childLayout=stackLayout;horizontal=1;startSize=30;horizontalStack=0;resizeParent=1;resizeParentMax=0;resizeLast=0;collapsible=1;marginBottom=0;whiteSpace=wrap;html=1;fontSize=16;" vertex="1" parent="ZQnh7hxJV5lGrwh2JK_R-52">
          <mxGeometry x="40" y="180" width="140" height="120" as="geometry">
            <mxRectangle x="120" y="480" width="70" height="30" as="alternateBounds" />
          </mxGeometry>
        </mxCell>
        <mxCell id="ZQnh7hxJV5lGrwh2JK_R-41" value="&lt;span style=&quot;text-align: center;&quot;&gt;熱門推薦&lt;/span&gt;" style="text;strokeColor=none;fillColor=none;align=left;verticalAlign=middle;spacingLeft=4;spacingRight=4;overflow=hidden;points=[[0,0.5],[1,0.5]];portConstraint=eastwest;rotatable=0;whiteSpace=wrap;html=1;fontSize=16;" vertex="1" parent="ZQnh7hxJV5lGrwh2JK_R-40">
          <mxGeometry y="30" width="140" height="30" as="geometry" />
        </mxCell>
        <mxCell id="ZQnh7hxJV5lGrwh2JK_R-42" value="&lt;span style=&quot;text-align: center;&quot;&gt;正在追隨&lt;/span&gt;" style="text;strokeColor=none;fillColor=none;align=left;verticalAlign=middle;spacingLeft=4;spacingRight=4;overflow=hidden;points=[[0,0.5],[1,0.5]];portConstraint=eastwest;rotatable=0;whiteSpace=wrap;html=1;fontSize=16;" vertex="1" parent="ZQnh7hxJV5lGrwh2JK_R-40">
          <mxGeometry y="60" width="140" height="30" as="geometry" />
        </mxCell>
        <mxCell id="ZQnh7hxJV5lGrwh2JK_R-43" value="&lt;span style=&quot;text-align: center;&quot;&gt;最近觀看&lt;/span&gt;" style="text;strokeColor=none;fillColor=none;align=left;verticalAlign=middle;spacingLeft=4;spacingRight=4;overflow=hidden;points=[[0,0.5],[1,0.5]];portConstraint=eastwest;rotatable=0;whiteSpace=wrap;html=1;fontSize=16;" vertex="1" parent="ZQnh7hxJV5lGrwh2JK_R-40">
          <mxGeometry y="90" width="140" height="30" as="geometry" />
        </mxCell>
        <mxCell id="ZQnh7hxJV5lGrwh2JK_R-44" value="&lt;font style=&quot;font-size: 16px;&quot;&gt;貼文&lt;/font&gt;" style="rounded=1;whiteSpace=wrap;html=1;" vertex="1" parent="ZQnh7hxJV5lGrwh2JK_R-52">
          <mxGeometry x="40" y="120" width="120" height="60" as="geometry" />
        </mxCell>
        <mxCell id="ZQnh7hxJV5lGrwh2JK_R-54" value="&lt;span style=&quot;font-size: 16px;&quot;&gt;私訊&lt;/span&gt;" style="rounded=1;whiteSpace=wrap;html=1;" vertex="1" parent="ZQnh7hxJV5lGrwh2JK_R-52">
          <mxGeometry x="200" y="120" width="120" height="60" as="geometry" />
        </mxCell>
        <mxCell id="ZQnh7hxJV5lGrwh2JK_R-55" value="" style="swimlane;startSize=0;" vertex="1" parent="1">
          <mxGeometry x="530" y="360" width="520" height="280" as="geometry">
            <mxRectangle y="320" width="50" height="40" as="alternateBounds" />
          </mxGeometry>
        </mxCell>
        <mxCell id="ZQnh7hxJV5lGrwh2JK_R-18" value="&lt;font style=&quot;font-size: 16px;&quot;&gt;活動&lt;/font&gt;" style="rounded=1;whiteSpace=wrap;html=1;" vertex="1" parent="ZQnh7hxJV5lGrwh2JK_R-55">
          <mxGeometry x="360" y="120" width="120" height="60" as="geometry" />
        </mxCell>
        <mxCell id="ZQnh7hxJV5lGrwh2JK_R-26" value="&lt;font style=&quot;font-size: 16px;&quot;&gt;貼文&lt;/font&gt;" style="rounded=1;whiteSpace=wrap;html=1;" vertex="1" parent="ZQnh7hxJV5lGrwh2JK_R-55">
          <mxGeometry x="40" y="120" width="120" height="60" as="geometry" />
        </mxCell>
        <mxCell id="ZQnh7hxJV5lGrwh2JK_R-53" value="&lt;font style=&quot;font-size: 16px;&quot;&gt;成員&lt;/font&gt;" style="rounded=1;whiteSpace=wrap;html=1;" vertex="1" parent="ZQnh7hxJV5lGrwh2JK_R-55">
          <mxGeometry x="200" y="120" width="120" height="60" as="geometry" />
        </mxCell>
        <mxCell id="ZQnh7hxJV5lGrwh2JK_R-71" style="edgeStyle=orthogonalEdgeStyle;rounded=0;orthogonalLoop=1;jettySize=auto;html=1;" edge="1" parent="ZQnh7hxJV5lGrwh2JK_R-55" source="ZQnh7hxJV5lGrwh2JK_R-4" target="ZQnh7hxJV5lGrwh2JK_R-26">
          <mxGeometry relative="1" as="geometry" />
        </mxCell>
        <mxCell id="ZQnh7hxJV5lGrwh2JK_R-72" style="edgeStyle=orthogonalEdgeStyle;rounded=0;orthogonalLoop=1;jettySize=auto;html=1;" edge="1" parent="ZQnh7hxJV5lGrwh2JK_R-55" target="ZQnh7hxJV5lGrwh2JK_R-53">
          <mxGeometry relative="1" as="geometry">
            <mxPoint x="100" y="40" as="sourcePoint" />
            <Array as="points">
              <mxPoint x="100" y="80" />
              <mxPoint x="260" y="80" />
            </Array>
          </mxGeometry>
        </mxCell>
        <mxCell id="ZQnh7hxJV5lGrwh2JK_R-73" style="edgeStyle=orthogonalEdgeStyle;rounded=0;orthogonalLoop=1;jettySize=auto;html=1;exitX=0.5;exitY=1;exitDx=0;exitDy=0;" edge="1" parent="ZQnh7hxJV5lGrwh2JK_R-55" source="ZQnh7hxJV5lGrwh2JK_R-4" target="ZQnh7hxJV5lGrwh2JK_R-18">
          <mxGeometry relative="1" as="geometry" />
        </mxCell>
        <mxCell id="ZQnh7hxJV5lGrwh2JK_R-4" value="&lt;font style=&quot;font-size: 16px;&quot;&gt;社團&lt;/font&gt;" style="rounded=1;whiteSpace=wrap;html=1;" vertex="1" parent="ZQnh7hxJV5lGrwh2JK_R-55">
          <mxGeometry x="40" y="-20" width="120" height="60" as="geometry" />
        </mxCell>
        <mxCell id="ZQnh7hxJV5lGrwh2JK_R-61" value="" style="swimlane;startSize=0;" vertex="1" parent="1">
          <mxGeometry x="1090" y="360" width="360" height="280" as="geometry" />
        </mxCell>
        <mxCell id="ZQnh7hxJV5lGrwh2JK_R-74" style="edgeStyle=orthogonalEdgeStyle;rounded=0;orthogonalLoop=1;jettySize=auto;html=1;" edge="1" parent="ZQnh7hxJV5lGrwh2JK_R-61" source="ZQnh7hxJV5lGrwh2JK_R-57" target="ZQnh7hxJV5lGrwh2JK_R-58">
          <mxGeometry relative="1" as="geometry" />
        </mxCell>
        <mxCell id="ZQnh7hxJV5lGrwh2JK_R-75" style="edgeStyle=orthogonalEdgeStyle;rounded=0;orthogonalLoop=1;jettySize=auto;html=1;exitX=0.5;exitY=1;exitDx=0;exitDy=0;" edge="1" parent="ZQnh7hxJV5lGrwh2JK_R-61" source="ZQnh7hxJV5lGrwh2JK_R-57" target="ZQnh7hxJV5lGrwh2JK_R-59">
          <mxGeometry relative="1" as="geometry" />
        </mxCell>
        <mxCell id="ZQnh7hxJV5lGrwh2JK_R-57" value="&lt;font style=&quot;font-size: 16px;&quot;&gt;公開活動&lt;/font&gt;" style="rounded=1;whiteSpace=wrap;html=1;" vertex="1" parent="ZQnh7hxJV5lGrwh2JK_R-61">
          <mxGeometry x="40" y="-20" width="120" height="60" as="geometry" />
        </mxCell>
        <mxCell id="ZQnh7hxJV5lGrwh2JK_R-58" value="&lt;font style=&quot;font-size: 16px;&quot;&gt;活動資訊&lt;/font&gt;" style="rounded=1;whiteSpace=wrap;html=1;" vertex="1" parent="ZQnh7hxJV5lGrwh2JK_R-61">
          <mxGeometry x="40" y="120" width="120" height="60" as="geometry" />
        </mxCell>
        <mxCell id="ZQnh7hxJV5lGrwh2JK_R-59" value="&lt;font style=&quot;font-size: 16px;&quot;&gt;貼文&lt;/font&gt;" style="rounded=1;whiteSpace=wrap;html=1;" vertex="1" parent="ZQnh7hxJV5lGrwh2JK_R-61">
          <mxGeometry x="200" y="120" width="120" height="60" as="geometry" />
        </mxCell>
        <mxCell id="ZQnh7hxJV5lGrwh2JK_R-51" value="" style="swimlane;startSize=0;" vertex="1" parent="1">
          <mxGeometry x="-510" y="360" width="560" height="400" as="geometry">
            <mxRectangle x="-470" y="310" width="50" height="40" as="alternateBounds" />
          </mxGeometry>
        </mxCell>
        <mxCell id="ZQnh7hxJV5lGrwh2JK_R-5" value="&lt;font style=&quot;font-size: 16px;&quot;&gt;追蹤中 / 粉絲&lt;/font&gt;" style="rounded=1;whiteSpace=wrap;html=1;" vertex="1" parent="ZQnh7hxJV5lGrwh2JK_R-51">
          <mxGeometry x="200" y="120" width="120" height="60" as="geometry" />
        </mxCell>
        <mxCell id="ZQnh7hxJV5lGrwh2JK_R-23" value="&lt;font style=&quot;font-size: 16px;&quot;&gt;貼文&lt;/font&gt;" style="rounded=1;whiteSpace=wrap;html=1;" vertex="1" parent="ZQnh7hxJV5lGrwh2JK_R-51">
          <mxGeometry x="360" y="120" width="120" height="60" as="geometry" />
        </mxCell>
        <mxCell id="ZQnh7hxJV5lGrwh2JK_R-31" value="貼文" style="swimlane;fontStyle=0;childLayout=stackLayout;horizontal=1;startSize=30;horizontalStack=0;resizeParent=1;resizeParentMax=0;resizeLast=0;collapsible=1;marginBottom=0;whiteSpace=wrap;html=1;fontSize=16;" vertex="1" parent="ZQnh7hxJV5lGrwh2JK_R-51">
          <mxGeometry x="360" y="180" width="140" height="120" as="geometry">
            <mxRectangle x="120" y="480" width="70" height="30" as="alternateBounds" />
          </mxGeometry>
        </mxCell>
        <mxCell id="ZQnh7hxJV5lGrwh2JK_R-32" value="自己的貼文" style="text;strokeColor=none;fillColor=none;align=left;verticalAlign=middle;spacingLeft=4;spacingRight=4;overflow=hidden;points=[[0,0.5],[1,0.5]];portConstraint=eastwest;rotatable=0;whiteSpace=wrap;html=1;fontSize=16;" vertex="1" parent="ZQnh7hxJV5lGrwh2JK_R-31">
          <mxGeometry y="30" width="140" height="30" as="geometry" />
        </mxCell>
        <mxCell id="ZQnh7hxJV5lGrwh2JK_R-33" value="喜歡的貼文" style="text;strokeColor=none;fillColor=none;align=left;verticalAlign=middle;spacingLeft=4;spacingRight=4;overflow=hidden;points=[[0,0.5],[1,0.5]];portConstraint=eastwest;rotatable=0;whiteSpace=wrap;html=1;fontSize=16;" vertex="1" parent="ZQnh7hxJV5lGrwh2JK_R-31">
          <mxGeometry y="60" width="140" height="30" as="geometry" />
        </mxCell>
        <mxCell id="ZQnh7hxJV5lGrwh2JK_R-34" value="留言過的貼文" style="text;strokeColor=none;fillColor=none;align=left;verticalAlign=middle;spacingLeft=4;spacingRight=4;overflow=hidden;points=[[0,0.5],[1,0.5]];portConstraint=eastwest;rotatable=0;whiteSpace=wrap;html=1;fontSize=16;" vertex="1" parent="ZQnh7hxJV5lGrwh2JK_R-31">
          <mxGeometry y="90" width="140" height="30" as="geometry" />
        </mxCell>
        <mxCell id="ZQnh7hxJV5lGrwh2JK_R-50" value="&lt;font style=&quot;font-size: 16px;&quot;&gt;個人介紹&lt;/font&gt;" style="rounded=1;whiteSpace=wrap;html=1;" vertex="1" parent="ZQnh7hxJV5lGrwh2JK_R-51">
          <mxGeometry x="40" y="120" width="120" height="60" as="geometry" />
        </mxCell>
        <mxCell id="ZQnh7hxJV5lGrwh2JK_R-66" style="edgeStyle=orthogonalEdgeStyle;rounded=0;orthogonalLoop=1;jettySize=auto;html=1;entryX=0.5;entryY=0;entryDx=0;entryDy=0;" edge="1" parent="ZQnh7hxJV5lGrwh2JK_R-51" source="ZQnh7hxJV5lGrwh2JK_R-2" target="ZQnh7hxJV5lGrwh2JK_R-50">
          <mxGeometry relative="1" as="geometry" />
        </mxCell>
        <mxCell id="ZQnh7hxJV5lGrwh2JK_R-67" style="edgeStyle=orthogonalEdgeStyle;rounded=0;orthogonalLoop=1;jettySize=auto;html=1;entryX=0.5;entryY=0;entryDx=0;entryDy=0;exitX=0.5;exitY=1;exitDx=0;exitDy=0;" edge="1" parent="ZQnh7hxJV5lGrwh2JK_R-51" source="ZQnh7hxJV5lGrwh2JK_R-2" target="ZQnh7hxJV5lGrwh2JK_R-5">
          <mxGeometry relative="1" as="geometry" />
        </mxCell>
        <mxCell id="ZQnh7hxJV5lGrwh2JK_R-68" style="edgeStyle=orthogonalEdgeStyle;rounded=0;orthogonalLoop=1;jettySize=auto;html=1;exitX=0.5;exitY=1;exitDx=0;exitDy=0;" edge="1" parent="ZQnh7hxJV5lGrwh2JK_R-51" source="ZQnh7hxJV5lGrwh2JK_R-2" target="ZQnh7hxJV5lGrwh2JK_R-23">
          <mxGeometry relative="1" as="geometry" />
        </mxCell>
        <mxCell id="ZQnh7hxJV5lGrwh2JK_R-2" value="&lt;font style=&quot;font-size: 16px;&quot;&gt;個人頁面&lt;/font&gt;" style="rounded=1;whiteSpace=wrap;html=1;" vertex="1" parent="ZQnh7hxJV5lGrwh2JK_R-51">
          <mxGeometry x="40" y="-20" width="120" height="60" as="geometry" />
        </mxCell>
      </root>
    </mxGraphModel>
  </diagram>
</mxfile>
